:SAMPLES-PER-SECOND 30
:FULLY-SPECIFIED
:DEGREES
234
root  -5.10078 40.6903 -2.01372 -7.2895 -64.5855 5.50314
RightUpLeg  10.517 -3.28715 1.16974
RightLeg  -3.53033 -40.4902 3.63209
RightFoot  -4.93449 -0.136844 1.76055
RightToes  -3.13006e-008 1.75238e-005 3.56266e-009
Spine  -12.5208 0.213669 -3.82282
Spine1  16.6678 2.97422 -5.22176
HEad  -4.85801 -19.5887 3.23785
LeftShoulder1  3.60799 -6.70214 -29.3247
LeftArm  -31.4016 1.71282 -47.3291
LeftForeArm  167.856 -66.9485 -156.805
LeftHand  -1.07471 -4.75274 12.5881
RightShoulder  3.4361 6.51922 28.3292
RightArm  -49.1383 -14.854 30.7116
RightForeArm  150.197 66.2901 155.463
RightHand  -1.39741 9.7966 -11.0203
LeftUpLeg  3.02312 0.656904 3.51868
LeftLeg  0.170105 -10.5917 0.74498
LeftFoot  -1.46681 0.561275 -6.39303
LeftToes  4.78685e-008 1.46778e-008 1.34523e-009
235
root  -5.03989 40.7185 -1.82945 -7.8077 -67.7754 5.58856
RightUpLeg  10.8294 -3.11025 0.933896
RightLeg  -3.45775 -37.5606 3.23217
RightFoot  -4.61116 -0.130157 1.64605
RightToes  -3.13006e-008 1.75238e-005 3.56266e-009
Spine  -13.229 0.382518 -3.78167
Spine1  17.5406 2.7214 -3.86197
HEad  -4.38866 -17.2686 4.20918
LeftShoulder1  3.71973 -6.9001 -29.7371
LeftArm  -30.1829 2.50613 -47.2249
LeftForeArm  168.238 -65.7001 -158.118
LeftHand  -0.936819 -4.57195 11.1581
RightShoulder  3.65814 6.96363 29.0098
RightArm  -45.902 -10.3853 32.7625
RightForeArm  149.996 66.8286 154.834
RightHand  -1.45838 9.70844 -11.5444
LeftUpLeg  4.25586 1.03115 3.6459
LeftLeg  -0.201672 -7.95785 0.602312
LeftFoot  -1.67616 0.535364 -6.20918
LeftToes  4.78685e-008 1.46778e-008 1.34523e-009
236
root  -4.95752 40.7358 -1.62661 -8.11009 -70.9857 5.2649
RightUpLeg  11.2137 -3.05667 0.720454
RightLeg  -3.25571 -34.5136 2.93544
RightFoot  -4.4038 -0.122185 1.50969
RightToes  -3.13006e-008 1.75238e-005 3.56266e-009
Spine  -13.4799 0.277164 -3.45362
Spine1  18.0858 2.16691 -2.81294
HEad  -3.10868 -15.3583 4.96179
LeftShoulder1  3.78232 -7.09912 -29.6534
LeftArm  -29.3223 3.61751 -47.7919
LeftForeArm  168.715 -64.7974 -159.007
LeftHand  -0.778034 -4.19718 9.69151
RightShoulder  3.95089 7.54724 29.8234
RightArm  -42.147 -5.99096 35.2082
RightForeArm  149.131 67.8658 153.485
RightHand  -1.43384 9.73388 -11.3351
LeftUpLeg  5.40074 1.50445 3.87665
LeftLeg  -0.088049 -5.39872 0.390834
LeftFoot  -2.09465 0.489257 -5.89295
LeftToes  4.78685e-008 1.46778e-008 1.34523e-009
237
root  -4.89689 40.7605 -1.42005 -8.57362 -74.3649 5.14438
RightUpLeg  11.5281 -3.04171 0.427154
RightLeg  -2.9971 -31.2712 2.58408
RightFoot  -4.16329 -0.122016 1.49168
RightToes  -3.13006e-008 1.75238e-005 3.56266e-009
Spine  -14.4665 0.0528378 -3.4516
Spine1  19.8714 1.46577 -1.45251
HEad  -2.72739 -12.4843 6.26339
LeftShoulder1  3.92916 -7.42907 -29.9251
LeftArm  -28.9774 4.30835 -47.7317
LeftForeArm  169.053 -64.1476 -159.617
LeftHand  -0.878965 -4.62132 10.4694
RightShoulder  4.29728 8.16012 30.9361
RightArm  -38.7189 -1.7022 37.671
RightForeArm  149.089 69.0927 151.865
RightHand  -1.27193 9.65352 -10.1635
LeftUpLeg  6.78515 1.9658 4.04322
LeftLeg  -0.439539 -2.64093 0.157766
LeftFoot  -2.32864 0.458089 -5.63351
LeftToes  4.78685e-008 1.46778e-008 1.34523e-009
238
root  -4.82869 40.7793 -1.20059 -8.95591 -77.1946 5.07264
RightUpLeg  11.7633 -3.09846 0.0620127
RightLeg  -2.91026 -28.495 2.41685
RightFoot  -3.92918 -0.124167 1.50616
RightToes  -3.13006e-008 1.75238e-005 3.56266e-009
Spine  -15.2798 -0.370505 -3.76809
Spine1  21.5377 0.468981 0.127768
HEad  -1.93681 -9.81174 7.21567
LeftShoulder1  4.04409 -7.69454 -30.1057
LeftArm  -28.4905 4.62216 -47.1185
LeftForeArm  168.077 -64.2638 -159.416
LeftHand  -0.860885 -5.5415 9.44867
RightShoulder  4.53615 8.47834 31.956
RightArm  -35.5703 1.54741 39.5962
RightForeArm  149.818 69.9811 150.676
RightHand  -1.23945 9.90192 -9.76676
LeftUpLeg  7.75959 2.14249 3.95542
LeftLeg  -0.504538 -0.0699663 0.0683874
LeftFoot  -2.53646 0.427171 -5.34857
LeftToes  4.78685e-008 1.46778e-008 1.34523e-009
239
root  -4.73713 40.7854 -1.00843 -9.41057 -79.6132 5.00701
RightUpLeg  11.7648 -3.10963 -0.221611
RightLeg  -2.24024 -26.143 1.93987
RightFoot  -3.83978 -0.133043 1.62068
RightToes  -3.13006e-008 1.75238e-005 3.56266e-009
Spine  -15.1576 -0.987214 -4.3279
Spine1  22.359 -0.746137 1.68707
HEad  -0.980252 -7.16425 8.07724
LeftShoulder1  3.96665 -7.67651 -29.4532
LeftArm  -28.6768 3.81693 -45.696
LeftForeArm  166.668 -64.8469 -158.736
LeftHand  -0.70117 -6.49969 7.18038
RightShoulder  4.73217 8.87343 32.334
RightArm  -33.6412 3.92473 40.2082
RightForeArm  150.515 70.3852 150.15
RightHand  -1.14203 10.1089 -8.89755
LeftUpLeg  8.54862 2.40992 3.92917
LeftLeg  -0.321887 2.02042 -0.11295
LeftFoot  -2.76474 0.392318 -5.01025
LeftToes  4.78685e-008 1.46778e-008 1.34523e-009
